<svg width="102" height="27" viewBox="0 0 102 27" fill="none" xmlns="http://www.w3.org/2000/svg">
<g filter="url(#filter0_b_257_3)">
<path d="M7.072 20.6H14.956V26H0.0160001V0.619998H7.072V20.6ZM25.5476 26.252C23.1716 26.252 20.9876 25.7 18.9956 24.596C17.0036 23.468 15.4196 21.92 14.2436 19.952C13.0916 17.96 12.5156 15.716 12.5156 13.22C12.5156 10.724 13.0916 8.492 14.2436 6.524C15.4196 4.532 17.0036 2.984 18.9956 1.88C20.9876 0.775999 23.1716 0.223999 25.5476 0.223999C27.9476 0.223999 30.1316 0.775999 32.0996 1.88C34.0916 2.984 35.6636 4.532 36.8156 6.524C37.9676 8.492 38.5436 10.724 38.5436 13.22C38.5436 15.716 37.9676 17.96 36.8156 19.952C35.6636 21.92 34.0916 23.468 32.0996 24.596C30.1076 25.7 27.9236 26.252 25.5476 26.252ZM25.5476 19.7C27.3476 19.7 28.7636 19.112 29.7956 17.936C30.8516 16.76 31.3796 15.188 31.3796 13.22C31.3796 11.204 30.8516 9.62 29.7956 8.468C28.7636 7.292 27.3476 6.704 25.5476 6.704C23.7236 6.704 22.2956 7.292 21.2636 8.468C20.2316 9.62 19.7156 11.204 19.7156 13.22C19.7156 15.212 20.2316 16.796 21.2636 17.972C22.2956 19.124 23.7236 19.7 25.5476 19.7ZM50.2475 26L45.2075 16.64H44.4515V26H37.3955V0.619998H48.5195C50.5595 0.619998 52.2875 0.979999 53.7035 1.7C55.1195 2.396 56.1875 3.368 56.9075 4.616C57.6275 5.84 57.9875 7.22 57.9875 8.756C57.9875 10.484 57.5075 12.008 56.5475 13.328C55.6115 14.624 54.2315 15.548 52.4075 16.1L58.1315 26H50.2475ZM44.4515 11.816H47.9435C48.9035 11.816 49.6235 11.588 50.1035 11.132C50.5835 10.676 50.8235 10.016 50.8235 9.152C50.8235 8.336 50.5715 7.7 50.0675 7.244C49.5875 6.764 48.8795 6.524 47.9435 6.524H44.4515V11.816ZM63.9323 6.272V10.412H72.0323V15.776H63.9323V20.348H73.1123V26H56.8763V0.619998H73.1123V6.272H63.9323ZM101.907 0.619998V26H94.851V11.996L90.063 26H84.159L79.335 11.888V26H72.279V0.619998H80.811L87.183 17.108L93.411 0.619998H101.907Z" fill="black"/>
</g>
<defs>
<filter id="filter0_b_257_3" x="-3.98401" y="-3.776" width="109.891" height="34.028" filterUnits="userSpaceOnUse" color-interpolation-filters="sRGB">
<feFlood flood-opacity="0" result="BackgroundImageFix"/>
<feGaussianBlur in="BackgroundImageFix" stdDeviation="2"/>
<feComposite in2="SourceAlpha" operator="in" result="effect1_backgroundBlur_257_3"/>
<feBlend mode="normal" in="SourceGraphic" in2="effect1_backgroundBlur_257_3" result="shape"/>
</filter>
</defs>
</svg>
